HIERARCHY
ROOT Hips
{
	OFFSET 0.000000 0.000000 0.000000
	CHANNELS 6 Xposition Yposition Zposition Zrotation Yrotation Xrotation 
	JOINT LHipJoint
	{
		OFFSET 0.000000 0.000000 0.000000
		CHANNELS 3 Zrotation Yrotation Xrotation
		JOINT LeftUpLeg
		{
			OFFSET 1.363060 -1.794630 0.839290
			CHANNELS 3 Zrotation Yrotation Xrotation
			JOINT LeftLeg
			{
				OFFSET 2.448110 -6.726130 0.000000
				CHANNELS 3 Zrotation Yrotation Xrotation
				JOINT LeftFoot
				{
					OFFSET 2.562200 -7.039590 0.000000
					CHANNELS 3 Zrotation Yrotation Xrotation
					JOINT LeftToeBase
					{
						OFFSET 0.157640 -0.433110 2.322550
						CHANNELS 3 Zrotation Yrotation Xrotation
						End Site
						{
							OFFSET 0.000000 0.000000 0.000000
						}
					}
				}
			}
		}
	}
	JOINT RHipJoint
	{
		OFFSET 0.000000 0.000000 0.000000
		CHANNELS 3 Zrotation Yrotation Xrotation
		JOINT RightUpLeg
		{
			OFFSET -1.305520 -1.794630 0.839290
			CHANNELS 3 Zrotation Yrotation Xrotation
			JOINT RightLeg
			{
				OFFSET -2.542530 -6.985550 0.000000
				CHANNELS 3 Zrotation Yrotation Xrotation
				JOINT RightFoot
				{
					OFFSET -2.568260 -7.056230 0.000000
					CHANNELS 3 Zrotation Yrotation Xrotation
					JOINT RightToeBase
					{
						OFFSET -0.164730 -0.452590 2.363150
						CHANNELS 3 Zrotation Yrotation Xrotation
						End Site
						{
							OFFSET 0.000000 0.000000 0.000000
						}
					}
				}
			}
		}
	}
}
MOTION
Frames: 19
Frame Time: 0.008333
3.072290 16.821172 -1.662294 17.917108 -86.140299 -26.973887 -10.443819 3.469315 -0.374288 1.621647 23.955927 -18.426278 -0.787654 2.344341 42.494917 1.146419 7.156575 3.886063 1.022600 0.000000 -60.299700 11.074160 -1.908526 -1.592166 4.122691 -22.003186 -1.267943 1.389825 -0.976032 26.563693 -1.457543 -5.215724 -14.637748 0.823200 0.000000 -58.072501
3.097286 16.829365 -1.712645 15.976026 -85.862678 -25.048944 -10.440838 3.355416 -0.463942 1.506951 24.511987 -20.408159 -0.648337 2.495504 44.726409 1.254789 7.604826 5.582939 1.263100 0.000000 -59.346200 11.030688 -1.897053 -1.571842 4.439011 -22.102898 -1.192346 1.384624 -0.925516 26.208560 -1.486365 -5.386937 -14.575800 0.834200 0.000000 -57.591300
3.123761 16.837208 -1.762733 14.213657 -85.550712 -23.298374 -10.419495 3.220277 -0.560005 1.295012 25.040916 -22.482231 -0.510418 2.647925 47.016939 1.384462 8.199635 7.219565 1.550800 0.000000 -58.139800 10.990942 -1.881688 -1.556965 4.753674 -22.205282 -1.141177 1.376503 -0.877859 25.883379 -1.521417 -5.596110 -14.516484 0.848100 -0.000000 -57.122300
3.151626 16.844506 -1.812280 12.658412 -85.209198 -21.755786 -10.378138 3.068738 -0.664366 0.981989 25.541491 -24.627167 -0.377911 2.803402 49.351857 1.528181 8.917277 8.722467 1.884300 0.000000 -56.753800 10.957162 -1.861895 -1.549095 5.059428 -22.308273 -1.107145 1.365043 -0.833635 25.589731 -1.562477 -5.841387 -14.461461 0.865000 -0.000000 -56.659900
3.180535 16.851259 -1.860917 11.317298 -84.851885 -20.425298 -10.317395 2.905889 -0.777970 0.567323 26.022004 -26.833848 -0.252637 2.964017 51.718643 1.678171 9.725910 10.032958 2.254800 0.000000 -55.345800 10.928694 -1.839038 -1.543344 5.363395 -22.388321 -1.094324 1.349779 -0.793582 25.334060 -1.611439 -6.131205 -14.415582 0.886000 -0.000001 -56.197300
3.210699 16.857256 -1.908892 10.241419 -84.478255 -19.375451 -10.235384 2.740027 -0.907215 0.048096 26.487433 -29.070056 -0.134823 3.133301 54.106288 1.825141 10.578799 11.087314 2.640300 0.000000 -53.837100 10.912464 -1.810317 -1.547440 5.634579 -22.465642 -1.075755 1.330287 -0.757852 25.109234 -1.664397 -6.444077 -14.377580 0.909000 0.000000 -55.713400
3.241278 16.862877 -1.955427 9.341391 -84.108918 -18.499619 -10.137742 2.574422 -1.046250 -0.575344 26.947146 -31.360391 -0.021322 3.312231 56.508816 1.963737 11.439421 11.871845 3.021100 0.000000 -52.504600 10.899932 -1.781382 -1.546842 5.907484 -22.501893 -1.078369 1.307617 -0.726252 24.919008 -1.724611 -6.795626 -14.348197 0.935300 -0.000001 -55.230901
3.272334 16.868043 -2.000865 8.641979 -83.742495 -17.836364 -10.024097 2.415984 -1.200279 -1.303764 27.405875 -33.683515 0.090765 3.503492 58.920991 2.086562 12.254179 12.352140 3.363701 -0.000000 -51.195600 10.896177 -1.750245 -1.548507 6.155437 -22.519466 -1.075594 1.282052 -0.698401 24.752111 -1.787790 -7.162031 -14.326059 0.962801 -0.000000 -54.723299
3.303178 16.873202 -2.044680 8.075143 -83.391973 -17.303549 -9.898589 2.266657 -1.360605 -2.142244 27.859002 -36.065589 0.206430 3.705342 61.333358 2.192379 12.997370 12.563817 3.653300 -0.000000 -50.172200 10.894918 -1.721603 -1.541122 6.401637 -22.499510 -1.090794 1.255228 -0.673460 24.605837 -1.854489 -7.545524 -14.306769 0.991100 0.000000 -54.220900
3.333799 16.878381 -2.087202 7.642261 -83.054991 -16.910753 -9.761565 2.130326 -1.529532 -3.089275 28.304797 -38.496740 0.329059 3.918425 63.744600 2.276989 13.626473 12.503316 3.863400 0.000000 -49.125600 10.898797 -1.694237 -1.530486 6.628739 -22.462804 -1.103335 1.227934 -0.650741 24.468142 -1.920932 -7.925442 -14.288995 1.018300 -0.000000 -53.687000
3.363498 16.884031 -2.128064 7.300583 -82.739433 -16.600285 -9.615433 2.006998 -1.695864 -4.151596 28.722993 -41.000560 0.462843 4.138026 66.142070 2.343408 14.141098 12.249515 4.000300 -0.000000 -48.418100 10.903429 -1.671623 -1.508241 6.853651 -22.400256 -1.134785 1.201642 -0.629199 24.334898 -1.986996 -8.301570 -14.266484 1.043300 -0.000000 -53.179000
3.392473 16.890177 -2.167558 7.039030 -82.441230 -16.367395 -9.460813 1.897535 -1.858862 -5.324737 29.100957 -43.570702 0.610215 4.362322 68.523980 2.391204 14.526213 11.830781 4.059700 0.000000 -47.780900 10.910019 -1.652468 -1.479607 7.066264 -22.328637 -1.171506 1.176987 -0.608259 24.197044 -2.050118 -8.660426 -14.238219 1.064900 0.000000 -52.667800
3.420540 16.896929 -2.205726 6.836721 -82.158483 -16.187660 -9.298973 1.801338 -2.013003 -6.605425 29.417049 -46.209484 0.773314 4.587525 70.885529 2.422781 14.788166 11.299602 4.052600 -0.000000 -47.152100 10.917580 -1.637055 -1.445329 7.268280 -22.255275 -1.214278 1.154605 -0.587277 24.049008 -2.109378 -8.998003 -14.201006 1.082300 0.000000 -52.163300
3.447579 16.904472 -2.242558 6.686029 -81.892830 -16.047169 -9.130638 1.716237 -2.151977 -7.988425 29.647885 -48.916844 0.953354 4.808243 73.215875 2.443569 14.955355 10.743538 4.007001 0.000000 -46.803600 10.925403 -1.625121 -1.403919 7.465451 -22.172956 -1.270525 1.134133 -0.566009 23.890780 -2.165973 -9.321547 -14.152436 1.095300 0.000001 -51.701100
3.473861 16.912659 -2.278203 6.572744 -81.640501 -15.933310 -8.957079 1.640247 -2.273713 -9.461099 29.775268 -51.682562 1.150845 5.021299 75.513201 2.456363 15.044869 10.204253 3.938700 0.000000 -46.627000 10.933313 -1.615295 -1.358158 7.658656 -22.082839 -1.336985 1.115051 -0.544520 23.722786 -2.220905 -9.636550 -14.093703 1.104599 0.000000 -51.271300
3.499531 16.921391 -2.312777 6.492113 -81.397901 -15.843231 -8.779622 1.571268 -2.378326 -11.005196 29.785368 -54.487092 1.365472 5.224148 77.774960 2.463626 15.074514 9.712933 3.861099 -0.000000 -46.519700 10.941878 -1.605808 -1.311949 7.845891 -21.985736 -1.406131 1.096288 -0.523103 23.545341 -2.275450 -9.950793 -14.023902 1.110199 0.000000 -50.887700
3.524884 16.930432 -2.346431 6.438060 -81.163169 -15.771705 -8.599558 1.506316 -2.466237 -12.600941 29.668387 -57.311724 1.596143 5.414299 79.995201 2.468384 15.065521 9.310816 3.790701 0.000000 -46.583699 10.951002 -1.594754 -1.267099 8.031122 -21.870223 -1.475667 1.076341 -0.502449 23.365637 -2.332798 -10.280165 -13.947747 1.113900 0.000000 -50.537000
3.550489 16.939399 -2.379254 6.401271 -80.933945 -15.716403 -8.418513 1.442523 -2.540484 -14.225500 29.420868 -60.132519 1.841106 5.590642 82.169174 2.471749 15.028217 9.012527 3.733900 -0.000000 -46.782600 10.960850 -1.579787 -1.227182 8.215277 -21.728597 -1.538488 1.053532 -0.483498 23.190145 -2.395832 -10.639506 -13.868410 1.117100 0.000000 -50.215000
3.576650 16.947991 -2.411364 6.375922 -80.708527 -15.673689 -8.237901 1.377354 -2.604500 -15.856871 29.043920 -62.927738 2.097898 5.752916 84.290072 2.474009 14.967134 8.825466 3.693900 0.000000 -47.107000 10.971245 -1.559051 -1.194901 8.400659 -21.550827 -1.588858 1.026377 -0.467223 23.027379 -2.467578 -11.043147 -13.791016 1.121400 0.000000 -49.908300
